<svg xmlns="http://www.w3.org/2000/svg" width="161" height="55" viewBox="0 0 161 55" fill="none">
  <g clip-path="url(#clip0_188_838)">
    <path d="M160.292 0H0.0332031V55H160.292V0Z" fill="#13294B"/>
    <path d="M10.8618 31.8133L13.8596 31.538C14.0125 32.7309 14.349 33.7404 14.869 34.5051C15.3891 35.2699 16.1844 35.9123 17.2856 36.3711C18.3868 36.8605 19.6104 37.0747 20.987 37.0747C22.2105 37.0747 23.2812 36.8911 24.1989 36.5241C25.1165 36.157 25.8201 35.6675 26.2789 35.0252C26.7378 34.3828 26.9519 33.7098 26.9519 32.9757C26.9519 32.2109 26.7378 31.5685 26.2789 30.9873C25.8507 30.4367 25.1165 29.9473 24.1071 29.5496C23.4647 29.3049 22.027 28.9073 19.8246 28.3872C17.6221 27.8672 16.062 27.3472 15.1749 26.8883C14.0125 26.2766 13.156 25.5424 12.6054 24.6553C12.0548 23.7682 11.7489 22.7588 11.7489 21.6575C11.7489 20.434 12.0854 19.3021 12.789 18.2315C13.4925 17.1609 14.502 16.3655 15.8173 15.8149C17.1327 15.2643 18.6316 14.989 20.2528 14.989C22.027 14.989 23.6177 15.2643 24.9942 15.8455C26.3707 16.4267 27.4108 17.2832 28.1449 18.3845C28.8791 19.5163 29.2767 20.7704 29.3379 22.1776L26.2789 22.4223C26.126 20.8928 25.5448 19.761 24.5965 18.9657C23.6482 18.2009 22.2411 17.8033 20.4058 17.8033C18.4786 17.8033 17.0715 18.1703 16.1844 18.8739C15.2973 19.5774 14.869 20.434 14.869 21.4434C14.869 22.2999 15.1749 23.0341 15.8173 23.5847C16.4291 24.1353 18.0198 24.7165 20.6199 25.2977C23.22 25.8789 24.9942 26.3989 25.9425 26.8272C27.3496 27.4695 28.3896 28.2955 29.0626 29.2743C29.7356 30.2532 30.072 31.4156 30.072 32.7004C30.072 33.9851 29.705 35.1781 28.9708 36.3405C28.2367 37.4723 27.166 38.3594 25.8201 39.0018C24.4436 39.6442 22.8835 39.9501 21.1705 39.9501C18.9986 39.9501 17.1633 39.6442 15.695 39.0018C14.2267 38.3594 13.0643 37.4111 12.2383 36.1264C11.3512 34.8722 10.8924 33.4039 10.8618 31.8133Z" fill="#D57800"/>
    <path d="M34.9358 39.5523V15.4478H38.1171V39.5523H34.9358Z" fill="#D57800"/>
    <path d="M41.8491 39.5521V36.585L54.2073 21.1372C55.0944 20.036 55.9203 19.0877 56.7156 18.2618H43.2562V15.417H60.5393V18.2618L47.0188 34.9943L45.5505 36.6767H60.9064V39.5216H41.8491V39.5521Z" fill="#D57800"/>
    <path d="M64.3936 39.5523V15.4478H81.8296V18.2926H67.5749V25.6647H80.9119V28.4789H67.5749V36.7075H82.3802V39.5523H64.3936Z" fill="#D57800"/>
    <path d="M102.63 15.4478H105.812V29.366C105.812 31.7826 105.536 33.7097 104.986 35.1474C104.435 36.5851 103.456 37.7475 102.019 38.6346C100.581 39.5217 98.7149 39.9806 96.3901 39.9806C94.1265 39.9806 92.2911 39.5829 90.8534 38.8182C89.4157 38.0534 88.4063 36.9216 87.7639 35.4533C87.1521 33.985 86.8462 31.9661 86.8462 29.3966V15.4478H90.0275V29.366C90.0275 31.4461 90.211 33.0062 90.6087 33.985C91.0064 34.9639 91.6793 35.7286 92.6276 36.2792C93.5759 36.8298 94.7383 37.0746 96.1148 37.0746C98.4702 37.0746 100.122 36.5545 101.132 35.4839C102.141 34.4133 102.63 32.3638 102.63 29.3354V15.4478Z" fill="#D57800"/>
    <path d="M111.134 39.5523V15.4478H120.219C121.81 15.4478 123.034 15.5395 123.89 15.6925C125.083 15.876 126.062 16.2737 126.857 16.8243C127.653 17.3749 128.295 18.1396 128.784 19.1491C129.274 20.1585 129.519 21.2292 129.519 22.4528C129.519 24.5023 128.876 26.2459 127.561 27.653C126.246 29.0601 123.89 29.7943 120.495 29.7943H114.316V39.5829H111.134V39.5523ZM114.316 26.9188H120.556C122.605 26.9188 124.074 26.5212 124.961 25.7564C125.817 24.9917 126.246 23.9211 126.246 22.5139C126.246 21.5045 126.001 20.648 125.481 19.9138C124.961 19.2103 124.288 18.7208 123.462 18.4761C122.911 18.3232 121.932 18.262 120.495 18.262H114.316V26.9188Z" fill="#D57800"/>
    <path d="M133.587 39.5523V15.4478H142.672C144.263 15.4478 145.486 15.5395 146.343 15.6925C147.536 15.876 148.515 16.2737 149.31 16.8243C150.106 17.3749 150.748 18.1396 151.237 19.1491C151.727 20.1585 151.971 21.2292 151.971 22.4528C151.971 24.5023 151.329 26.2459 150.014 27.653C148.698 29.0601 146.343 29.7943 142.948 29.7943H136.768V39.5829H133.587V39.5523ZM136.799 26.9188H143.039C145.089 26.9188 146.557 26.5212 147.444 25.7564C148.301 24.9917 148.729 23.9211 148.729 22.5139C148.729 21.5045 148.484 20.648 147.964 19.9138C147.444 19.2103 146.771 18.7208 145.945 18.4761C145.395 18.3232 144.416 18.262 142.978 18.262H136.799V26.9188Z" fill="#D57800"/>
  </g>
  <defs>
    <clipPath id="clip0_188_838">
      <rect width="160.259" height="55" fill="white" transform="translate(0.0332031)"/>
    </clipPath>
  </defs>
</svg>